<?xml version="1.0" encoding="utf-8"?>
<!-- Generator: Adobe Illustrator 17.0.0, SVG Export Plug-In . SVG Version: 6.00 Build 0)  -->
<!DOCTYPE svg PUBLIC "-//W3C//DTD SVG 1.1//EN" "http://www.w3.org/Graphics/SVG/1.1/DTD/svg11.dtd">
<svg version="1.1" id="Capa_1" xmlns="http://www.w3.org/2000/svg" xmlns:xlink="http://www.w3.org/1999/xlink" x="0px" y="0px"
	 width="26px" height="26px" viewBox="0 0 26 26" enable-background="new 0 0 26 26" xml:space="preserve">
<g>
	<path fill="#010202" d="M13.006-0.031C5.818-0.031-0.01,5.796-0.01,12.984S5.818,26,13.006,26s13.016-5.827,13.016-13.016
		S20.194-0.031,13.006-0.031z M17.209,19.95c-2.689,0-5.377,0-8.065,0.001c-1.769,0-2.997-1.207-3.009-2.983
		c-0.012-1.796-0.011-3.593,0.001-5.389C6.147,9.934,7.41,8.697,9.047,8.7c0.957,0.002,1.913,0,2.869,0.001c0.111,0,0.221,0,0.332,0
		c0.017-0.031,0.035-0.062,0.052-0.093c-0.541-0.528-1.084-1.053-1.623-1.584C10.199,6.552,9.723,6.078,9.251,5.6
		c-0.266-0.268-0.3-0.591-0.078-0.78c0.275-0.234,0.519-0.134,0.746,0.094c0.958,0.961,1.92,1.919,2.876,2.882
		c0.099,0.1,0.167,0.231,0.299,0.417c0.404-0.428,0.723-0.779,1.057-1.117c0.708-0.717,1.422-1.429,2.138-2.139
		c0.324-0.322,0.577-0.357,0.802-0.126c0.207,0.213,0.159,0.515-0.137,0.81c-0.997,0.993-1.996,1.984-3.08,3.061
		c1.208,0,2.291-0.002,3.373,0c1.546,0.004,2.818,1.186,2.85,2.732c0.04,1.912,0.039,3.826,0.005,5.738
		C20.074,18.75,18.788,19.95,17.209,19.95z"/>
	<path fill="#010202" d="M17.114,9.642c-1.331-0.002-2.661,0-3.992,0c-1.343,0-2.687,0-4.031,0c-1.287,0-1.999,0.697-2.002,1.977
		c-0.005,1.783-0.004,3.566,0,5.349c0.003,1.356,0.695,2.037,2.062,2.037c2.661,0.001,5.323,0,7.984,0
		c1.313,0,2.018-0.695,2.02-1.999c0.003-1.77,0.002-3.54,0-5.31C19.154,10.325,18.477,9.645,17.114,9.642z M10.93,17.117v-5.589
		l5.281,2.795L10.93,17.117z"/>
</g>
</svg>
